<svg xmlns="http://www.w3.org/2000/svg" version="1.1" xmlns:xlink="http://www.w3.org/1999/xlink" xmlns:svgjs="http://svgjs.dev/svgjs" width="1000" height="1000" viewBox="0 0 1000 1000"><rect width="1000" height="1000" fill="#ffffff"></rect><g transform="matrix(0.7,0,0,0.7,150,281.25)"><svg viewBox="0 0 512 320" data-background-color="#ffffff" preserveAspectRatio="xMidYMid meet" height="625" width="1000" xmlns="http://www.w3.org/2000/svg" xmlns:xlink="http://www.w3.org/1999/xlink"><g id="tight-bounds" transform="matrix(1,0,0,1,0,0)"><svg viewBox="0 0 512 320" height="320" width="512"><g><svg></svg></g><g><svg viewBox="0 0 512 320" height="320" width="512"><g><path xmlns="http://www.w3.org/2000/svg" d="M96 320l0-320 320 0 0 320zM413.9 317.9l0-315.8-315.8 0 0 315.8z" fill="#e8443c" fill-rule="nonzero" stroke="none" stroke-width="1" stroke-linecap="butt" stroke-linejoin="miter" stroke-miterlimit="10" stroke-dasharray="" stroke-dashoffset="0" font-family="none" font-weight="none" font-size="none" text-anchor="none" style="mix-blend-mode: normal" data-fill-palette-color="tertiary"></path></g><g transform="matrix(1,0,0,1,149.87143246507972,80)"><svg viewBox="0 0 212.25713506984056 160" height="160" width="212.25713506984056"><g><svg viewBox="0 0 230.4 173.67614044102856" height="160" width="212.25713506984056"><g transform="matrix(1,0,0,1,0,126.81887391724156)"><svg viewBox="0 0 230.4 46.85726652378702" height="46.85726652378702" width="230.4"><g id="textblocktransform"><svg viewBox="0 0 230.4 46.85726652378702" height="46.85726652378702" width="230.4" id="textblock"><g><svg viewBox="0 0 230.4 25.272570554705965" height="25.272570554705965" width="230.4"><g transform="matrix(1,0,0,1,0,0)"><svg width="230.4" viewBox="3.1500000953674316 -38.599998474121094 359.6300048828125 39.44999694824219" height="25.272570554705965" data-palette-color="#e8443c"><path d="M16.1 0.85Q8.85 0.85 3.15-1.85L3.15-1.85 3.15-6.45Q8.9-3.4 16.1-3.4L16.1-3.4Q20.25-3.4 22.18-5.15 24.1-6.9 24.1-9.75L24.1-9.75Q24.1-12.45 22.33-13.8 20.55-15.15 17.1-16.15L17.1-16.15 13.7-17.1Q10.8-17.95 8.75-19.05 6.7-20.15 5.33-22.23 3.95-24.3 3.95-27.65L3.95-27.65Q3.95-33 7.08-35.8 10.2-38.6 15.95-38.6L15.95-38.6Q19.3-38.6 21.85-37.98 24.4-37.35 27.15-36.1L27.15-36.1 27.15-31.6Q22.05-34.35 15.95-34.35L15.95-34.35Q12.25-34.35 10.55-32.63 8.85-30.9 8.85-27.9L8.85-27.9Q8.9-25.15 10.53-23.85 12.15-22.55 15.6-21.55L15.6-21.55 19.05-20.6Q22.1-19.75 24.23-18.63 26.35-17.5 27.68-15.38 29-13.25 29-9.85L29-9.85Q28.95-4.9 25.53-2.02 22.1 0.85 16.1 0.85L16.1 0.85ZM58.6 0L44.95-17.1 42.35-14.35 42.35 0 37.5 0 37.5-37.9 42.35-37.9 42.35-20.95 58.45-37.9 64.6-37.9 48.25-20.6 64.85 0 58.6 0ZM101.84-37.9L107.2-37.9 107.2 0 102.34 0 102.34-30.55 90.75-14.4 88.2-14.4 76.7-30.55 76.7 0 71.84 0 71.84-37.9 77.15-37.9 89.5-20.6 101.84-37.9ZM153.24-37.9L153.24-33.55 141.84-33.55 141.84 0 136.94 0 136.94-33.55 125.54-33.55 125.54-37.9 153.24-37.9ZM182.54 0L172.79-16.05 165.44-16.05 165.44 0 160.59 0 160.59-37.9 173.84-37.9Q186.24-37.9 186.24-26.9L186.24-26.9Q186.24-22.55 184.16-19.88 182.09-17.2 177.94-16.4L177.94-16.4 188.09 0 182.54 0ZM165.44-33.65L165.44-20.3 173.84-20.3Q181.24-20.3 181.29-26.9L181.29-26.9Q181.29-30.4 179.44-32.02 177.59-33.65 173.84-33.65L173.84-33.65 165.44-33.65ZM220.84 0L216.74-11.05 200.94-11.05 196.89 0 191.89 0 206.14-38.35 211.54-38.35 225.84 0 220.84 0ZM202.59-15.4L215.09-15.4 208.84-32.3 202.59-15.4ZM245.08-37.9Q254.43-37.9 259.21-33.08 263.98-28.25 263.98-18.9L263.98-18.9Q263.98-9.5 259.23-4.75 254.48 0 245.08 0L245.08 0 232.48 0 232.48-37.9 245.08-37.9ZM258.98-19.05Q258.98-26.55 255.48-30.1 251.98-33.65 245.08-33.65L245.08-33.65 237.33-33.65 237.33-4.25 245.08-4.25Q252.03-4.25 255.51-7.8 258.98-11.35 258.98-19.05L258.98-19.05ZM277.13-4.2L295.48-4.2 295.48 0 272.28 0 272.28-37.9 295.23-37.9 295.23-33.7 277.13-33.7 277.13-21.15 292.73-21.15 292.73-16.95 277.13-16.95 277.13-4.2ZM325.78 0L316.03-16.05 308.68-16.05 308.68 0 303.83 0 303.83-37.9 317.08-37.9Q329.48-37.9 329.48-26.9L329.48-26.9Q329.48-22.55 327.4-19.88 325.33-17.2 321.18-16.4L321.18-16.4 331.33 0 325.78 0ZM308.68-33.65L308.68-20.3 317.08-20.3Q324.48-20.3 324.53-26.9L324.53-26.9Q324.53-30.4 322.68-32.02 320.83-33.65 317.08-33.65L317.08-33.65 308.68-33.65ZM349.88 0.85Q342.63 0.85 336.93-1.85L336.93-1.85 336.93-6.45Q342.68-3.4 349.88-3.4L349.88-3.4Q354.03-3.4 355.95-5.15 357.88-6.9 357.88-9.75L357.88-9.75Q357.88-12.45 356.1-13.8 354.33-15.15 350.88-16.15L350.88-16.15 347.48-17.1Q344.58-17.95 342.53-19.05 340.48-20.15 339.1-22.23 337.73-24.3 337.73-27.65L337.73-27.65Q337.73-33 340.85-35.8 343.98-38.6 349.73-38.6L349.73-38.6Q353.08-38.6 355.63-37.98 358.18-37.35 360.93-36.1L360.93-36.1 360.93-31.6Q355.83-34.35 349.73-34.35L349.73-34.35Q346.03-34.35 344.33-32.63 342.63-30.9 342.63-27.9L342.63-27.9Q342.68-25.15 344.3-23.85 345.93-22.55 349.38-21.55L349.38-21.55 352.83-20.6Q355.88-19.75 358-18.63 360.13-17.5 361.45-15.38 362.78-13.25 362.78-9.85L362.78-9.85Q362.73-4.9 359.3-2.02 355.88 0.85 349.88 0.85L349.88 0.85Z" opacity="1" transform="matrix(1,0,0,1,0,0)" fill="#e8443c" class="wordmark-text-0" data-fill-palette-color="primary" id="text-0"></path></svg></g></svg></g><g transform="matrix(1,0,0,1,0,31.23881792097873)"><svg viewBox="0 0 230.4 15.618448602808286" height="15.618448602808286" width="230.4"><g transform="matrix(1,0,0,1,0,0)"><svg width="230.4" viewBox="1.2000000476837158 -35.54999923706055 701.4500122070312 47.54999923706055" height="15.618448602808286" data-palette-color="#564242"><path d="M13.65 0.75L13.65 0.75Q9.85 0.75 7.05-0.83 4.25-2.4 2.73-5.3 1.2-8.2 1.2-12.1L1.2-12.1Q1.2-16 2.83-18.85 4.45-21.7 7.28-23.25 10.1-24.8 13.65-24.8L13.65-24.8Q17.2-24.8 20-23.28 22.8-21.75 24.43-18.9 26.05-16.05 26.05-12.1L26.05-12.1Q26.05-8.15 24.53-5.28 23-2.4 20.23-0.83 17.45 0.75 13.65 0.75ZM13.65-0.25L13.65-0.25Q15.4-0.25 16.45-1.25 17.5-2.25 17.98-4.8 18.45-7.35 18.45-12L18.45-12Q18.45-16.7 17.98-19.25 17.5-21.8 16.45-22.8 15.4-23.8 13.65-23.8L13.65-23.8Q11.9-23.8 10.83-22.8 9.75-21.8 9.28-19.25 8.8-16.7 8.8-12L8.8-12Q8.8-7.35 9.28-4.8 9.75-2.25 10.83-1.25 11.9-0.25 13.65-0.25ZM41.97 0L30.02 0 30.02-0.5 30.62-0.7Q32.42-1.3 32.42-3.2L32.42-3.2 32.42-29.95Q32.42-30.95 32.02-31.48 31.62-32 30.62-32.25L30.62-32.25 29.97-32.4 29.97-32.9 39.12-35.05 39.72-34.6 39.52-27.6 39.52-10.5Q39.52-8.65 39.54-6.83 39.57-5 39.57-3.2L39.57-3.2Q39.57-2.2 39.97-1.58 40.37-0.95 41.32-0.65L41.32-0.65 41.97-0.5 41.97 0ZM56.38 0.75L56.38 0.75Q53.43 0.75 51.08-0.58 48.73-1.9 47.36-4.67 45.98-7.45 45.98-11.8L45.98-11.8Q45.98-16.2 47.53-19.07 49.08-21.95 51.63-23.38 54.18-24.8 57.18-24.8L57.18-24.8Q58.93-24.8 60.53-24.45 62.13-24.1 63.38-23.4L63.38-23.4 63.38-29.9Q63.38-30.95 63.06-31.45 62.73-31.95 61.68-32.15L61.68-32.15 60.73-32.35 60.73-32.85 69.83-35.05 70.38-34.6 70.18-27.6 70.18-3.15Q70.18-2.15 70.53-1.53 70.88-0.9 71.83-0.65L71.83-0.65 72.28-0.5 72.28 0 63.73 0.55 63.28-1.25Q61.93-0.35 60.21 0.2 58.48 0.75 56.38 0.75ZM59.28-1.1L59.28-1.1Q61.38-1.1 63.13-2.35L63.13-2.35 63.13-22.2Q61.28-23.4 59.33-23.4L59.33-23.4Q56.93-23.4 55.23-20.63 53.53-17.85 53.53-11.9L53.53-11.9Q53.53-5.95 55.13-3.53 56.73-1.1 59.28-1.1ZM101.81 0L88.71 0 88.71-0.5 89.36-0.65Q90.31-0.9 90.86-1.53 91.41-2.15 91.41-3.15L91.41-3.15Q91.41-5 91.44-6.83 91.46-8.65 91.46-10.5L91.46-10.5 91.46-23.05 88.66-23.05 88.66-23.6 89.76-23.8Q90.76-23.9 91.21-24.5 91.66-25.1 91.86-26.15L91.86-26.15Q92.36-28.1 93.34-29.58 94.31-31.05 95.56-32.3L95.56-32.3Q97.46-34.1 99.59-34.83 101.71-35.55 103.76-35.55L103.76-35.55Q105.76-35.55 107.41-34.73 109.06-33.9 109.06-32L109.06-32Q109.06-30.65 108.26-29.88 107.46-29.1 106.01-29.1L106.01-29.1Q104.81-29.1 103.81-29.75 102.81-30.4 101.86-32.05L101.86-32.05 101.16-32.9Q100.61-33.6 100.06-33.58 99.51-33.55 99.26-32.75L99.26-32.75Q98.91-31 98.74-28.65 98.56-26.3 98.56-24.05L98.56-24.05 104.16-24.05 104.16-23.05 98.56-23.05 98.56-3.25Q98.56-1.35 100.56-0.8L100.56-0.8 101.81-0.5 101.81 0ZM116.43 0.75L116.43 0.75Q114.48 0.75 112.85 0 111.23-0.75 110.3-2.43 109.38-4.1 109.43-6.85L109.43-6.85 109.58-19.7Q109.58-20.85 109.18-21.35 108.78-21.85 107.93-22.05L107.93-22.05 107.33-22.25 107.33-22.75 116.28-24.5 116.78-24 116.53-16.9 116.53-4.85Q116.53-3.25 117.45-2.5 118.38-1.75 119.78-1.75L119.78-1.75Q121.18-1.75 122.28-2.15 123.38-2.55 124.48-3.35L124.48-3.35 124.68-19.65Q124.68-20.8 124.33-21.28 123.98-21.75 123.03-21.95L123.03-21.95 122.53-22.1 122.53-22.6 131.28-24.5 131.78-24 131.63-16.9 131.63-3.35Q131.63-2.25 131.93-1.65 132.23-1.05 133.23-0.65L133.23-0.65 133.73-0.5 133.73 0 124.98 0.5 124.53-2.45Q122.88-1.1 120.95-0.18 119.03 0.75 116.43 0.75ZM150.29 0L137.34 0 137.34-0.5 138.09-0.7Q139.09-1 139.47-1.6 139.84-2.2 139.84-3.15L139.84-3.15 139.84-18.8Q139.84-19.9 139.47-20.43 139.09-20.95 138.09-21.15L138.09-21.15 137.34-21.35 137.34-21.85 145.94-24.75 146.44-24.25 146.89-19.95 146.89-19.55Q147.59-20.95 148.72-22.13 149.84-23.3 151.22-24.05 152.59-24.8 153.94-24.8L153.94-24.8Q155.84-24.8 156.84-23.75 157.84-22.7 157.84-21.1L157.84-21.1Q157.84-19.4 156.87-18.48 155.89-17.55 154.54-17.55L154.54-17.55Q152.44-17.55 150.84-19.65L150.84-19.65 150.74-19.75Q150.24-20.45 149.59-20.53 148.94-20.6 148.39-19.9L148.39-19.9Q147.89-19.45 147.57-18.82 147.24-18.2 146.94-17.4L146.94-17.4 146.94-3.45Q146.94-1.45 148.69-0.95L148.69-0.95 150.29-0.5 150.29 0ZM172.76 0L161.01 0 161.01-0.5 161.71-0.7Q163.46-1.2 163.46-3.15L163.46-3.15 163.46-18.8Q163.46-19.9 163.11-20.43 162.76-20.95 161.76-21.15L161.76-21.15 161.01-21.35 161.01-21.85 169.56-24.75 170.06-24.25 170.46-21.25Q172.21-22.8 174.41-23.8 176.61-24.8 178.76-24.8L178.76-24.8Q182.06-24.8 183.83-23 185.61-21.2 185.61-17.5L185.61-17.5 185.61-3.1Q185.61-1.15 187.51-0.65L187.51-0.65 187.96-0.5 187.96 0 176.16 0 176.16-0.5 176.81-0.7Q178.56-1.25 178.56-3.15L178.56-3.15 178.56-19.1Q178.56-22.3 175.36-22.3L175.36-22.3Q173.16-22.3 170.56-20.1L170.56-20.1 170.56-3.1Q170.56-1.15 172.31-0.65L172.31-0.65 172.76-0.5 172.76 0ZM197.52-27.4L197.52-27.4Q195.82-27.4 194.65-28.48 193.47-29.55 193.47-31.2L193.47-31.2Q193.47-32.9 194.65-33.95 195.82-35 197.52-35L197.52-35Q199.22-35 200.37-33.95 201.52-32.9 201.52-31.2L201.52-31.2Q201.52-29.55 200.37-28.48 199.22-27.4 197.52-27.4ZM203.32 0L191.62 0 191.62-0.5 192.32-0.7Q193.32-1 193.7-1.6 194.07-2.2 194.07-3.2L194.07-3.2 194.07-18.85Q194.07-19.9 193.7-20.43 193.32-20.95 192.32-21.15L192.32-21.15 191.62-21.3 191.62-21.8 200.77-24.75 201.27-24.25 201.12-17.15 201.12-3.15Q201.12-2.15 201.5-1.55 201.87-0.95 202.82-0.65L202.82-0.65 203.32-0.5 203.32 0ZM216.64 0.75L216.64 0.75Q213.44 0.75 211.66-0.85 209.89-2.45 209.89-5.95L209.89-5.95 209.89-23.05 206.44-23.05 206.44-23.55 207.64-23.75Q209.19-24.1 210.31-24.75 211.44-25.4 212.54-26.5L212.54-26.5 216.64-31.05 217.14-31.05 216.99-24.05 222.59-24.05 222.59-23.05 216.94-23.05 216.94-5.05Q216.94-3.3 217.71-2.4 218.49-1.5 219.69-1.5L219.69-1.5Q220.74-1.5 221.54-2.02 222.34-2.55 223.14-3.45L223.14-3.45 223.64-2.95Q222.64-1.25 220.89-0.25 219.14 0.75 216.64 0.75ZM235.85 0.75L235.85 0.75Q233.9 0.75 232.28 0 230.65-0.75 229.73-2.43 228.8-4.1 228.85-6.85L228.85-6.85 229-19.7Q229-20.85 228.6-21.35 228.2-21.85 227.35-22.05L227.35-22.05 226.75-22.25 226.75-22.75 235.7-24.5 236.2-24 235.95-16.9 235.95-4.85Q235.95-3.25 236.88-2.5 237.8-1.75 239.2-1.75L239.2-1.75Q240.6-1.75 241.7-2.15 242.8-2.55 243.9-3.35L243.9-3.35 244.1-19.65Q244.1-20.8 243.75-21.28 243.4-21.75 242.45-21.95L242.45-21.95 241.95-22.1 241.95-22.6 250.7-24.5 251.2-24 251.05-16.9 251.05-3.35Q251.05-2.25 251.35-1.65 251.65-1.05 252.65-0.65L252.65-0.65 253.15-0.5 253.15 0 244.4 0.5 243.95-2.45Q242.3-1.1 240.38-0.18 238.45 0.75 235.85 0.75ZM269.72 0L256.77 0 256.77-0.5 257.52-0.7Q258.52-1 258.89-1.6 259.27-2.2 259.27-3.15L259.27-3.15 259.27-18.8Q259.27-19.9 258.89-20.43 258.52-20.95 257.52-21.15L257.52-21.15 256.77-21.35 256.77-21.85 265.37-24.75 265.87-24.25 266.32-19.95 266.32-19.55Q267.02-20.95 268.14-22.13 269.27-23.3 270.64-24.05 272.02-24.8 273.37-24.8L273.37-24.8Q275.27-24.8 276.27-23.75 277.27-22.7 277.27-21.1L277.27-21.1Q277.27-19.4 276.29-18.48 275.32-17.55 273.97-17.55L273.97-17.55Q271.87-17.55 270.27-19.65L270.27-19.65 270.17-19.75Q269.67-20.45 269.02-20.53 268.37-20.6 267.82-19.9L267.82-19.9Q267.32-19.45 266.99-18.82 266.67-18.2 266.37-17.4L266.37-17.4 266.37-3.45Q266.37-1.45 268.12-0.95L268.12-0.95 269.72-0.5 269.72 0ZM292.99-24.8L292.99-24.8Q296.24-24.8 298.54-23.48 300.84-22.15 302.06-19.88 303.29-17.6 303.29-14.7L303.29-14.7Q303.29-14.15 303.24-13.58 303.19-13 303.04-12.55L303.04-12.55 288.14-12.55Q288.19-7.15 290.06-4.78 291.94-2.4 295.64-2.4L295.64-2.4Q298.14-2.4 299.69-3.2 301.24-4 302.59-5.55L302.59-5.55 303.09-5.1Q301.54-2.35 298.96-0.8 296.39 0.75 292.79 0.75L292.79 0.75Q289.24 0.75 286.49-0.78 283.74-2.3 282.19-5.15 280.64-8 280.64-11.95L280.64-11.95Q280.64-16.05 282.44-18.93 284.24-21.8 287.06-23.3 289.89-24.8 292.99-24.8ZM292.84-23.8L292.84-23.8Q291.39-23.8 290.36-22.93 289.34-22.05 288.76-19.83 288.19-17.6 288.14-13.55L288.14-13.55 296.69-13.55Q297.19-19 296.29-21.4 295.39-23.8 292.84-23.8ZM329.27-1.15L328.47 0.65 320.02 0 320.02-0.5 320.52-0.6Q322.47-1.05 322.47-3.1L322.47-3.1 322.47-29.85Q322.47-30.9 322.14-31.45 321.82-32 320.82-32.2L320.82-32.2 320.12-32.4 320.12-32.9 329.02-35.05 329.62-34.6 329.42-27.55 329.42-22.5Q331.07-23.65 333.02-24.23 334.97-24.8 336.97-24.8L336.97-24.8Q339.82-24.8 342.02-23.48 344.22-22.15 345.49-19.38 346.77-16.6 346.77-12.25L346.77-12.25Q346.77-7.9 345.34-5.03 343.92-2.15 341.54-0.7 339.17 0.75 336.32 0.75L336.32 0.75Q334.47 0.75 332.59 0.25 330.72-0.25 329.27-1.15L329.27-1.15ZM333.82-0.95L333.82-0.95Q335.42-0.95 336.62-1.95 337.82-2.95 338.52-5.38 339.22-7.8 339.22-12.05L339.22-12.05Q339.22-16.3 338.57-18.6 337.92-20.9 336.74-21.8 335.57-22.7 333.92-22.7L333.92-22.7Q331.57-22.7 329.57-21.4L329.57-21.4 329.57-2.2Q330.52-1.6 331.52-1.28 332.52-0.95 333.82-0.95ZM359.63 0.75L359.63 0.75Q357.68 0.75 356.06 0 354.43-0.75 353.51-2.43 352.58-4.1 352.63-6.85L352.63-6.85 352.78-19.7Q352.78-20.85 352.38-21.35 351.98-21.85 351.13-22.05L351.13-22.05 350.53-22.25 350.53-22.75 359.48-24.5 359.98-24 359.73-16.9 359.73-4.85Q359.73-3.25 360.66-2.5 361.58-1.75 362.98-1.75L362.98-1.75Q364.38-1.75 365.48-2.15 366.58-2.55 367.68-3.35L367.68-3.35 367.88-19.65Q367.88-20.8 367.53-21.28 367.18-21.75 366.23-21.95L366.23-21.95 365.73-22.1 365.73-22.6 374.48-24.5 374.98-24 374.83-16.9 374.83-3.35Q374.83-2.25 375.13-1.65 375.43-1.05 376.43-0.65L376.43-0.65 376.93-0.5 376.93 0 368.18 0.5 367.73-2.45Q366.08-1.1 364.16-0.18 362.23 0.75 359.63 0.75ZM385.15 12L385.15 12Q383.15 12 381.97 11 380.8 10 380.8 8.45L380.8 8.45Q380.8 7.05 381.8 6.2 382.8 5.35 384.05 5.35L384.05 5.35Q385.3 5.35 386.15 5.88 387 6.4 387.65 7.4L387.65 7.4 388 7.8Q389.1 9.3 390.2 7.75L390.2 7.75Q390.65 7 391.22 5.78 391.8 4.55 392.55 2.5L392.55 2.5 382.85-20.7Q382.5-21.65 382.1-22.23 381.7-22.8 380.8-23.2L380.8-23.2 379.9-23.55 379.9-24.05 392.35-24.05 392.35-23.6 391.35-23.2Q390.25-22.85 390.22-22.08 390.2-21.3 390.6-20.15L390.6-20.15 395.8-6.65 400.75-20.3Q401.15-21.45 401.05-22.23 400.95-23 399.8-23.3L399.8-23.3 398.75-23.55 398.75-24.05 405.7-24.05 405.7-23.55 404.6-23.2Q403.45-22.85 403-22.2 402.55-21.55 402.15-20.4L402.15-20.4 394.1 1.55Q392.15 6.8 390.2 9.4 388.25 12 385.15 12ZM421.51-24.8L421.51-24.8Q424.76-24.8 427.06-23.48 429.36-22.15 430.59-19.88 431.81-17.6 431.81-14.7L431.81-14.7Q431.81-14.15 431.76-13.58 431.71-13 431.56-12.55L431.56-12.55 416.66-12.55Q416.71-7.15 418.59-4.78 420.46-2.4 424.16-2.4L424.16-2.4Q426.66-2.4 428.21-3.2 429.76-4 431.11-5.55L431.11-5.55 431.61-5.1Q430.06-2.35 427.49-0.8 424.91 0.75 421.31 0.75L421.31 0.75Q417.76 0.75 415.01-0.78 412.26-2.3 410.71-5.15 409.16-8 409.16-11.95L409.16-11.95Q409.16-16.05 410.96-18.93 412.76-21.8 415.59-23.3 418.41-24.8 421.51-24.8ZM421.36-23.8L421.36-23.8Q419.91-23.8 418.89-22.93 417.86-22.05 417.29-19.83 416.71-17.6 416.66-13.55L416.66-13.55 425.21-13.55Q425.71-19 424.81-21.4 423.91-23.8 421.36-23.8ZM448.88 0L435.93 0 435.93-0.5 436.68-0.7Q437.68-1 438.05-1.6 438.43-2.2 438.43-3.15L438.43-3.15 438.43-18.8Q438.43-19.9 438.05-20.43 437.68-20.95 436.68-21.15L436.68-21.15 435.93-21.35 435.93-21.85 444.53-24.75 445.03-24.25 445.48-19.95 445.48-19.55Q446.18-20.95 447.3-22.13 448.43-23.3 449.8-24.05 451.18-24.8 452.53-24.8L452.53-24.8Q454.43-24.8 455.43-23.75 456.43-22.7 456.43-21.1L456.43-21.1Q456.43-19.4 455.45-18.48 454.48-17.55 453.13-17.55L453.13-17.55Q451.03-17.55 449.43-19.65L449.43-19.65 449.33-19.75Q448.83-20.45 448.18-20.53 447.53-20.6 446.98-19.9L446.98-19.9Q446.48-19.45 446.15-18.82 445.83-18.2 445.53-17.4L445.53-17.4 445.53-3.45Q445.53-1.45 447.28-0.95L447.28-0.95 448.88-0.5 448.88 0ZM479.41 0.75L479.41 0.75Q476.51 0.75 474.53-0.9 472.56-2.55 472.56-5.65L472.56-5.65Q472.56-8 474.96-9.98 477.36-11.95 482.51-12.95L482.51-12.95Q483.31-13.1 484.31-13.28 485.31-13.45 486.41-13.65L486.41-13.65 486.41-17.6Q486.41-21 485.58-22.38 484.76-23.75 483.01-23.75L483.01-23.75Q481.81-23.75 481.11-22.98 480.41-22.2 480.21-20.3L480.21-20.3 480.11-19.75Q480.01-17.6 479.06-16.6 478.11-15.6 476.71-15.6L476.71-15.6Q475.41-15.6 474.56-16.4 473.71-17.2 473.71-18.55L473.71-18.55Q473.71-20.6 475.13-22 476.56-23.4 478.91-24.1 481.26-24.8 484.01-24.8L484.01-24.8Q488.46-24.8 490.88-22.63 493.31-20.45 493.31-15.55L493.31-15.55 493.31-4.5Q493.31-2.25 495.41-2.25L495.41-2.25 496.51-2.25 496.96-1.85Q496.01-0.65 494.88 0 493.76 0.65 491.71 0.65L491.71 0.65Q489.51 0.65 488.23-0.38 486.96-1.4 486.56-3.1L486.56-3.1Q485.06-1.5 483.48-0.38 481.91 0.75 479.41 0.75ZM482.46-2.3L482.46-2.3Q483.46-2.3 484.33-2.78 485.21-3.25 486.41-4.25L486.41-4.25 486.41-12.65Q485.91-12.55 485.41-12.45 484.91-12.35 484.26-12.25L484.26-12.25Q481.96-11.65 480.58-10.23 479.21-8.8 479.21-6.4L479.21-6.4Q479.21-4.35 480.16-3.33 481.11-2.3 482.46-2.3ZM511.37 0L499.62 0 499.62-0.5 500.32-0.7Q502.07-1.2 502.07-3.15L502.07-3.15 502.07-18.8Q502.07-19.9 501.72-20.43 501.37-20.95 500.37-21.15L500.37-21.15 499.62-21.35 499.62-21.85 508.17-24.75 508.67-24.25 509.07-21.25Q510.82-22.8 513.02-23.8 515.22-24.8 517.37-24.8L517.37-24.8Q520.67-24.8 522.45-23 524.22-21.2 524.22-17.5L524.22-17.5 524.22-3.1Q524.22-1.15 526.12-0.65L526.12-0.65 526.57-0.5 526.57 0 514.77 0 514.77-0.5 515.42-0.7Q517.17-1.25 517.17-3.15L517.17-3.15 517.17-19.1Q517.17-22.3 513.97-22.3L513.97-22.3Q511.77-22.3 509.17-20.1L509.17-20.1 509.17-3.1Q509.17-1.15 510.92-0.65L510.92-0.65 511.37-0.5 511.37 0ZM540.74 0.75L540.74 0.75Q537.79 0.75 535.44-0.58 533.09-1.9 531.71-4.67 530.34-7.45 530.34-11.8L530.34-11.8Q530.34-16.2 531.89-19.07 533.44-21.95 535.99-23.38 538.54-24.8 541.54-24.8L541.54-24.8Q543.29-24.8 544.89-24.45 546.49-24.1 547.74-23.4L547.74-23.4 547.74-29.9Q547.74-30.95 547.41-31.45 547.09-31.95 546.04-32.15L546.04-32.15 545.09-32.35 545.09-32.85 554.19-35.05 554.74-34.6 554.54-27.6 554.54-3.15Q554.54-2.15 554.89-1.53 555.24-0.9 556.19-0.65L556.19-0.65 556.64-0.5 556.64 0 548.09 0.55 547.64-1.25Q546.29-0.35 544.56 0.2 542.84 0.75 540.74 0.75ZM543.64-1.1L543.64-1.1Q545.74-1.1 547.49-2.35L547.49-2.35 547.49-22.2Q545.64-23.4 543.69-23.4L543.69-23.4Q541.29-23.4 539.59-20.63 537.89-17.85 537.89-11.9L537.89-11.9Q537.89-5.95 539.49-3.53 541.09-1.1 543.64-1.1ZM581.62 0.75L581.62 0.75Q579.17 0.75 577.22 0.18 575.27-0.4 573.62-1.25L573.62-1.25 573.67-7.2 574.17-7.2 575.87-4.2Q576.97-2.2 578.3-1.23 579.62-0.25 581.67-0.25L581.67-0.25Q584.07-0.25 585.55-1.33 587.02-2.4 587.02-4.2L587.02-4.2Q587.02-5.85 585.97-6.9 584.92-7.95 582.07-8.8L582.07-8.8 579.97-9.45Q576.92-10.35 575.17-12.25 573.42-14.15 573.42-16.9L573.42-16.9Q573.42-20.2 576.02-22.5 578.62-24.8 583.47-24.8L583.47-24.8Q585.42-24.8 587.15-24.38 588.87-23.95 590.47-23.1L590.47-23.1 590.17-17.7 589.67-17.7 587.92-20.8Q586.97-22.45 586.05-23.13 585.12-23.8 583.27-23.8L583.27-23.8Q581.57-23.8 580.07-22.85 578.57-21.9 578.57-20.15L578.57-20.15Q578.57-18.45 579.85-17.45 581.12-16.45 583.62-15.6L583.62-15.6 585.87-14.95Q589.47-13.85 591.02-11.93 592.57-10 592.57-7.3L592.57-7.3Q592.57-3.65 589.7-1.45 586.82 0.75 581.62 0.75ZM608.94-24.8L608.94-24.8Q612.19-24.8 614.49-23.48 616.79-22.15 618.01-19.88 619.24-17.6 619.24-14.7L619.24-14.7Q619.24-14.15 619.19-13.58 619.14-13 618.99-12.55L618.99-12.55 604.09-12.55Q604.14-7.15 606.01-4.78 607.89-2.4 611.59-2.4L611.59-2.4Q614.09-2.4 615.64-3.2 617.19-4 618.54-5.55L618.54-5.55 619.04-5.1Q617.49-2.35 614.91-0.8 612.34 0.75 608.74 0.75L608.74 0.75Q605.19 0.75 602.44-0.78 599.69-2.3 598.14-5.15 596.59-8 596.59-11.95L596.59-11.95Q596.59-16.05 598.39-18.93 600.19-21.8 603.01-23.3 605.84-24.8 608.94-24.8ZM608.79-23.8L608.79-23.8Q607.34-23.8 606.31-22.93 605.29-22.05 604.71-19.83 604.14-17.6 604.09-13.55L604.09-13.55 612.64-13.55Q613.14-19 612.24-21.4 611.34-23.8 608.79-23.8ZM635.45 0L623.5 0 623.5-0.5 624.1-0.7Q625.9-1.3 625.9-3.2L625.9-3.2 625.9-29.95Q625.9-30.95 625.5-31.48 625.1-32 624.1-32.25L624.1-32.25 623.45-32.4 623.45-32.9 632.6-35.05 633.2-34.6 633-27.6 633-10.5Q633-8.65 633.03-6.83 633.05-5 633.05-3.2L633.05-3.2Q633.05-2.2 633.45-1.58 633.85-0.95 634.8-0.65L634.8-0.65 635.45-0.5 635.45 0ZM651.37 0L639.42 0 639.42-0.5 640.02-0.7Q641.82-1.3 641.82-3.2L641.82-3.2 641.82-29.95Q641.82-30.95 641.42-31.48 641.02-32 640.02-32.25L640.02-32.25 639.37-32.4 639.37-32.9 648.52-35.05 649.12-34.6 648.92-27.6 648.92-10.5Q648.92-8.65 648.94-6.83 648.97-5 648.97-3.2L648.97-3.2Q648.97-2.2 649.37-1.58 649.77-0.95 650.72-0.65L650.72-0.65 651.37-0.5 651.37 0ZM667.73-24.8L667.73-24.8Q670.98-24.8 673.28-23.48 675.58-22.15 676.81-19.88 678.03-17.6 678.03-14.7L678.03-14.7Q678.03-14.15 677.98-13.58 677.93-13 677.78-12.55L677.78-12.55 662.88-12.55Q662.93-7.15 664.81-4.78 666.68-2.4 670.38-2.4L670.38-2.4Q672.88-2.4 674.43-3.2 675.98-4 677.33-5.55L677.33-5.55 677.83-5.1Q676.28-2.35 673.71-0.8 671.13 0.75 667.53 0.75L667.53 0.75Q663.98 0.75 661.23-0.78 658.48-2.3 656.93-5.15 655.38-8 655.38-11.95L655.38-11.95Q655.38-16.05 657.18-18.93 658.98-21.8 661.81-23.3 664.63-24.8 667.73-24.8ZM667.58-23.8L667.58-23.8Q666.13-23.8 665.11-22.93 664.08-22.05 663.51-19.83 662.93-17.6 662.88-13.55L662.88-13.55 671.43-13.55Q671.93-19 671.03-21.4 670.13-23.8 667.58-23.8ZM695.1 0L682.15 0 682.15-0.5 682.9-0.7Q683.9-1 684.27-1.6 684.65-2.2 684.65-3.15L684.65-3.15 684.65-18.8Q684.65-19.9 684.27-20.43 683.9-20.95 682.9-21.15L682.9-21.15 682.15-21.35 682.15-21.85 690.75-24.75 691.25-24.25 691.7-19.95 691.7-19.55Q692.4-20.95 693.52-22.13 694.65-23.3 696.02-24.05 697.4-24.8 698.75-24.8L698.75-24.8Q700.65-24.8 701.65-23.75 702.65-22.7 702.65-21.1L702.65-21.1Q702.65-19.4 701.67-18.48 700.7-17.55 699.35-17.55L699.35-17.55Q697.25-17.55 695.65-19.65L695.65-19.65 695.55-19.75Q695.05-20.45 694.4-20.53 693.75-20.6 693.2-19.9L693.2-19.9Q692.7-19.45 692.37-18.82 692.05-18.2 691.75-17.4L691.75-17.4 691.75-3.45Q691.75-1.45 693.5-0.95L693.5-0.95 695.1-0.5 695.1 0Z" opacity="1" transform="matrix(1,0,0,1,0,0)" fill="#564242" class="slogan-text-1" data-fill-palette-color="secondary" id="text-1"></path></svg></g></svg></g></svg></g></svg></g><g transform="matrix(1,0,0,1,57.75681040765199,0)"><svg viewBox="0 0 114.88637918469603 114.88637918469603" height="114.88637918469603" width="114.88637918469603"><g><svg></svg></g><g id="icon-0"><svg viewBox="0 0 114.88637918469603 114.88637918469603" height="114.88637918469603" width="114.88637918469603"><g><path d="M0 57.443c0-31.725 25.718-57.443 57.443-57.443 31.725 0 57.443 25.718 57.443 57.443 0 31.725-25.718 57.443-57.443 57.443-31.725 0-57.443-25.718-57.443-57.443zM57.443 112.607c30.466 0 55.164-24.698 55.164-55.164 0-30.466-24.698-55.164-55.164-55.164-30.466 0-55.164 24.698-55.164 55.164 0 30.466 24.698 55.164 55.164 55.164z" data-fill-palette-color="accent" fill="#f31a0d" stroke="transparent"></path><ellipse rx="56.86875769642453" ry="56.86875769642453" cx="57.44318959234801" cy="57.44318959234801" fill="#f31a0d" stroke="transparent" stroke-width="0" fill-opacity="1" data-fill-palette-color="accent"></ellipse></g><g transform="matrix(1,0,0,1,28.07091658443259,23.470440089216922)"><svg viewBox="0 0 58.74454601583084 67.94549900626218" height="67.94549900626218" width="58.74454601583084"><g><svg xmlns="http://www.w3.org/2000/svg" xmlns:xlink="http://www.w3.org/1999/xlink" version="1.1" x="0" y="0" viewBox="9 1 83 96" enable-background="new 0 0 100 100" xml:space="preserve" height="67.94549900626218" width="58.74454601583084" class="icon-s-0" data-fill-palette-color="quaternary" id="s-0"><g fill="#ffffff" data-fill-palette-color="quaternary"><path fill="#ffffff" d="M71.3 10.01C57.831 10.01 50.55 1 50.55 1s-7.306 9.01-20.774 9.01C17.371 10.01 9 2.528 9 2.528v48.928C9.378 83.682 50.5 97 50.5 97S92 83.682 92 51.456V2.528C92 2.528 83.703 10.01 71.3 10.01z" data-fill-palette-color="quaternary"></path></g></svg></g></svg></g></svg></g></svg></g><g></g></svg></g></svg></g></svg></g><defs></defs></svg><rect width="512" height="320" fill="none" stroke="none" visibility="hidden"></rect></g></svg></g></svg>